<mxfile host="app.diagrams.net" agent="Mozilla/5.0 (Macintosh; Intel Mac OS X 10_15_7) AppleWebKit/537.36 (KHTML, like Gecko) Chrome/126.0.0.0 YaBrowser/24.7.0.0 Safari/537.36" version="24.7.13">
  <diagram name="Страница — 1" id="rE0MAkwXLb-lT4gxWfU5">
    <mxGraphModel dx="1306" dy="761" grid="1" gridSize="10" guides="1" tooltips="1" connect="1" arrows="1" fold="1" page="1" pageScale="1" pageWidth="827" pageHeight="1169" math="0" shadow="0">
      <root>
        <mxCell id="0" />
        <mxCell id="1" parent="0" />
        <mxCell id="_Z7kFgiQrJCgqxg7yo5q-1" value="Начало" style="rounded=1;whiteSpace=wrap;html=1;arcSize=50;" parent="1" vertex="1">
          <mxGeometry x="90" y="60" width="120" height="60" as="geometry" />
        </mxCell>
        <mxCell id="_Z7kFgiQrJCgqxg7yo5q-2" value="Конец" style="rounded=1;whiteSpace=wrap;html=1;arcSize=50;" parent="1" vertex="1">
          <mxGeometry x="90" y="480" width="120" height="60" as="geometry" />
        </mxCell>
        <mxCell id="_Z7kFgiQrJCgqxg7yo5q-31" style="edgeStyle=orthogonalEdgeStyle;rounded=0;orthogonalLoop=1;jettySize=auto;html=1;exitX=0.5;exitY=1;exitDx=0;exitDy=0;exitPerimeter=0;entryX=0.5;entryY=0;entryDx=0;entryDy=0;endArrow=none;endFill=0;" parent="1" source="_Z7kFgiQrJCgqxg7yo5q-3" target="_Z7kFgiQrJCgqxg7yo5q-5" edge="1">
          <mxGeometry relative="1" as="geometry" />
        </mxCell>
        <mxCell id="_Z7kFgiQrJCgqxg7yo5q-3" value="n, m" style="shape=card;whiteSpace=wrap;html=1;" parent="1" vertex="1">
          <mxGeometry x="110" y="140" width="80" height="50" as="geometry" />
        </mxCell>
        <mxCell id="_Z7kFgiQrJCgqxg7yo5q-34" style="edgeStyle=orthogonalEdgeStyle;rounded=0;orthogonalLoop=1;jettySize=auto;html=1;entryX=0.5;entryY=0;entryDx=0;entryDy=0;exitX=0.501;exitY=0.863;exitDx=0;exitDy=0;exitPerimeter=0;endArrow=none;endFill=0;" parent="1" source="_Z7kFgiQrJCgqxg7yo5q-4" target="_Z7kFgiQrJCgqxg7yo5q-2" edge="1">
          <mxGeometry relative="1" as="geometry" />
        </mxCell>
        <mxCell id="_Z7kFgiQrJCgqxg7yo5q-4" value="numbers" style="shape=document;whiteSpace=wrap;html=1;boundedLbl=1;" parent="1" vertex="1">
          <mxGeometry x="100" y="380" width="100" height="70" as="geometry" />
        </mxCell>
        <mxCell id="_Z7kFgiQrJCgqxg7yo5q-32" style="edgeStyle=orthogonalEdgeStyle;rounded=0;orthogonalLoop=1;jettySize=auto;html=1;exitX=0.5;exitY=1;exitDx=0;exitDy=0;entryX=0.5;entryY=0;entryDx=0;entryDy=0;endArrow=none;endFill=0;" parent="1" source="_Z7kFgiQrJCgqxg7yo5q-5" target="_Z7kFgiQrJCgqxg7yo5q-6" edge="1">
          <mxGeometry relative="1" as="geometry" />
        </mxCell>
        <mxCell id="_Z7kFgiQrJCgqxg7yo5q-5" value="Func&amp;lt;int, int, List&amp;lt;int&amp;gt;&amp;gt; func = ReadEven" style="rounded=0;whiteSpace=wrap;html=1;" parent="1" vertex="1">
          <mxGeometry x="30" y="210" width="240" height="60" as="geometry" />
        </mxCell>
        <mxCell id="_Z7kFgiQrJCgqxg7yo5q-33" style="edgeStyle=orthogonalEdgeStyle;rounded=0;orthogonalLoop=1;jettySize=auto;html=1;exitX=0.5;exitY=1;exitDx=0;exitDy=0;entryX=0.5;entryY=0;entryDx=0;entryDy=0;endArrow=none;endFill=0;" parent="1" source="_Z7kFgiQrJCgqxg7yo5q-6" target="_Z7kFgiQrJCgqxg7yo5q-4" edge="1">
          <mxGeometry relative="1" as="geometry" />
        </mxCell>
        <mxCell id="_Z7kFgiQrJCgqxg7yo5q-6" value="func(n, m)" style="shape=process;whiteSpace=wrap;html=1;backgroundOutline=1;" parent="1" vertex="1">
          <mxGeometry x="90" y="300" width="120" height="60" as="geometry" />
        </mxCell>
        <mxCell id="_Z7kFgiQrJCgqxg7yo5q-8" style="edgeStyle=orthogonalEdgeStyle;rounded=0;orthogonalLoop=1;jettySize=auto;html=1;exitX=0.5;exitY=1;exitDx=0;exitDy=0;entryX=0.5;entryY=0;entryDx=0;entryDy=0;endArrow=none;endFill=0;" parent="1" source="_Z7kFgiQrJCgqxg7yo5q-9" target="_Z7kFgiQrJCgqxg7yo5q-12" edge="1">
          <mxGeometry relative="1" as="geometry" />
        </mxCell>
        <mxCell id="_Z7kFgiQrJCgqxg7yo5q-26" style="edgeStyle=orthogonalEdgeStyle;rounded=0;orthogonalLoop=1;jettySize=auto;html=1;exitX=1;exitY=0.5;exitDx=0;exitDy=0;entryX=0.5;entryY=0;entryDx=0;entryDy=0;endArrow=none;endFill=0;" parent="1" source="_Z7kFgiQrJCgqxg7yo5q-9" target="_Z7kFgiQrJCgqxg7yo5q-24" edge="1">
          <mxGeometry relative="1" as="geometry">
            <Array as="points">
              <mxPoint x="559.97" y="268" />
              <mxPoint x="559.97" y="570" />
              <mxPoint x="429.97" y="570" />
            </Array>
          </mxGeometry>
        </mxCell>
        <mxCell id="_Z7kFgiQrJCgqxg7yo5q-9" value="i = 0; i &amp;lt; matrix.rows; ++i" style="shape=hexagon;perimeter=hexagonPerimeter2;whiteSpace=wrap;html=1;fixedSize=1;" parent="1" vertex="1">
          <mxGeometry x="344.97" y="243" width="170" height="50" as="geometry" />
        </mxCell>
        <mxCell id="_Z7kFgiQrJCgqxg7yo5q-10" style="edgeStyle=orthogonalEdgeStyle;rounded=0;orthogonalLoop=1;jettySize=auto;html=1;exitX=0.5;exitY=1;exitDx=0;exitDy=0;endArrow=none;endFill=0;entryX=0.5;entryY=0;entryDx=0;entryDy=0;" parent="1" source="_Z7kFgiQrJCgqxg7yo5q-12" target="_Z7kFgiQrJCgqxg7yo5q-16" edge="1">
          <mxGeometry relative="1" as="geometry">
            <mxPoint x="429.97" y="410" as="targetPoint" />
          </mxGeometry>
        </mxCell>
        <mxCell id="_Z7kFgiQrJCgqxg7yo5q-11" style="edgeStyle=orthogonalEdgeStyle;rounded=0;orthogonalLoop=1;jettySize=auto;html=1;exitX=1;exitY=0.5;exitDx=0;exitDy=0;entryX=0;entryY=0.5;entryDx=0;entryDy=0;" parent="1" source="_Z7kFgiQrJCgqxg7yo5q-12" edge="1" target="_Z7kFgiQrJCgqxg7yo5q-9">
          <mxGeometry relative="1" as="geometry">
            <mxPoint x="429.97" y="220" as="targetPoint" />
            <Array as="points">
              <mxPoint x="541" y="353" />
              <mxPoint x="541" y="560" />
              <mxPoint x="300" y="560" />
              <mxPoint x="300" y="268" />
            </Array>
          </mxGeometry>
        </mxCell>
        <mxCell id="_Z7kFgiQrJCgqxg7yo5q-12" value="j = 0; j &amp;lt; matrix.cols; ++j" style="shape=hexagon;perimeter=hexagonPerimeter2;whiteSpace=wrap;html=1;fixedSize=1;" parent="1" vertex="1">
          <mxGeometry x="344.97" y="328" width="170" height="50" as="geometry" />
        </mxCell>
        <mxCell id="_Z7kFgiQrJCgqxg7yo5q-18" style="edgeStyle=orthogonalEdgeStyle;rounded=0;orthogonalLoop=1;jettySize=auto;html=1;exitX=0.5;exitY=1;exitDx=0;exitDy=0;entryX=0.5;entryY=0;entryDx=0;entryDy=0;endArrow=none;endFill=0;" parent="1" source="_Z7kFgiQrJCgqxg7yo5q-16" target="_Z7kFgiQrJCgqxg7yo5q-17" edge="1">
          <mxGeometry relative="1" as="geometry" />
        </mxCell>
        <mxCell id="_Z7kFgiQrJCgqxg7yo5q-16" value="matrix[i, j] % 2 == 0" style="rhombus;whiteSpace=wrap;html=1;" parent="1" vertex="1">
          <mxGeometry x="349.97" y="390" width="160" height="80" as="geometry" />
        </mxCell>
        <mxCell id="_Z7kFgiQrJCgqxg7yo5q-25" style="edgeStyle=orthogonalEdgeStyle;rounded=0;orthogonalLoop=1;jettySize=auto;html=1;exitX=0;exitY=0.5;exitDx=0;exitDy=0;entryX=0;entryY=0.5;entryDx=0;entryDy=0;" parent="1" source="_Z7kFgiQrJCgqxg7yo5q-17" edge="1" target="_Z7kFgiQrJCgqxg7yo5q-12">
          <mxGeometry relative="1" as="geometry">
            <mxPoint x="429.97" y="310" as="targetPoint" />
            <Array as="points">
              <mxPoint x="330" y="520" />
              <mxPoint x="330" y="353" />
            </Array>
          </mxGeometry>
        </mxCell>
        <mxCell id="_Z7kFgiQrJCgqxg7yo5q-17" value="result.Add(matrix[i, j])" style="rounded=0;whiteSpace=wrap;html=1;" parent="1" vertex="1">
          <mxGeometry x="369.97" y="490" width="120" height="60" as="geometry" />
        </mxCell>
        <mxCell id="_Z7kFgiQrJCgqxg7yo5q-28" style="edgeStyle=orthogonalEdgeStyle;rounded=0;orthogonalLoop=1;jettySize=auto;html=1;exitX=0.5;exitY=1;exitDx=0;exitDy=0;entryX=0.5;entryY=0;entryDx=0;entryDy=0;endArrow=none;endFill=0;" parent="1" source="_Z7kFgiQrJCgqxg7yo5q-19" target="_Z7kFgiQrJCgqxg7yo5q-27" edge="1">
          <mxGeometry relative="1" as="geometry" />
        </mxCell>
        <mxCell id="_Z7kFgiQrJCgqxg7yo5q-19" value="RandomEven(n, m)" style="rounded=1;whiteSpace=wrap;html=1;arcSize=50;" parent="1" vertex="1">
          <mxGeometry x="369.97" y="60" width="120" height="60" as="geometry" />
        </mxCell>
        <mxCell id="_Z7kFgiQrJCgqxg7yo5q-24" value="&amp;nbsp;Возврат" style="rounded=1;whiteSpace=wrap;html=1;arcSize=50;" parent="1" vertex="1">
          <mxGeometry x="369.97" y="590" width="120" height="60" as="geometry" />
        </mxCell>
        <mxCell id="_Z7kFgiQrJCgqxg7yo5q-29" style="edgeStyle=orthogonalEdgeStyle;rounded=0;orthogonalLoop=1;jettySize=auto;html=1;exitX=0.5;exitY=1;exitDx=0;exitDy=0;entryX=0.5;entryY=0;entryDx=0;entryDy=0;endArrow=none;endFill=0;" parent="1" source="_Z7kFgiQrJCgqxg7yo5q-27" target="_Z7kFgiQrJCgqxg7yo5q-9" edge="1">
          <mxGeometry relative="1" as="geometry" />
        </mxCell>
        <mxCell id="_Z7kFgiQrJCgqxg7yo5q-27" value="matrix = RandomMatrix(n, m)" style="shape=process;whiteSpace=wrap;html=1;backgroundOutline=1;" parent="1" vertex="1">
          <mxGeometry x="324.97" y="140" width="210" height="60" as="geometry" />
        </mxCell>
        <mxCell id="_Z7kFgiQrJCgqxg7yo5q-30" style="edgeStyle=orthogonalEdgeStyle;rounded=0;orthogonalLoop=1;jettySize=auto;html=1;exitX=0.5;exitY=1;exitDx=0;exitDy=0;entryX=0.5;entryY=0;entryDx=0;entryDy=0;entryPerimeter=0;endArrow=none;endFill=0;" parent="1" source="_Z7kFgiQrJCgqxg7yo5q-1" target="_Z7kFgiQrJCgqxg7yo5q-3" edge="1">
          <mxGeometry relative="1" as="geometry" />
        </mxCell>
        <mxCell id="_Z7kFgiQrJCgqxg7yo5q-35" style="edgeStyle=orthogonalEdgeStyle;rounded=0;orthogonalLoop=1;jettySize=auto;html=1;exitX=0.5;exitY=1;exitDx=0;exitDy=0;entryX=0.5;entryY=0;entryDx=0;entryDy=0;endArrow=none;endFill=0;" parent="1" source="_Z7kFgiQrJCgqxg7yo5q-37" target="_Z7kFgiQrJCgqxg7yo5q-40" edge="1">
          <mxGeometry relative="1" as="geometry" />
        </mxCell>
        <mxCell id="_Z7kFgiQrJCgqxg7yo5q-36" style="edgeStyle=orthogonalEdgeStyle;rounded=0;orthogonalLoop=1;jettySize=auto;html=1;exitX=1;exitY=0.5;exitDx=0;exitDy=0;entryX=0.5;entryY=0;entryDx=0;entryDy=0;endArrow=none;endFill=0;" parent="1" source="_Z7kFgiQrJCgqxg7yo5q-37" target="_Z7kFgiQrJCgqxg7yo5q-47" edge="1">
          <mxGeometry relative="1" as="geometry">
            <Array as="points">
              <mxPoint x="880" y="266" />
              <mxPoint x="880" y="500" />
              <mxPoint x="750" y="500" />
            </Array>
          </mxGeometry>
        </mxCell>
        <mxCell id="_Z7kFgiQrJCgqxg7yo5q-37" value="i = 0; i &amp;lt; matrix.rows; ++i" style="shape=hexagon;perimeter=hexagonPerimeter2;whiteSpace=wrap;html=1;fixedSize=1;" parent="1" vertex="1">
          <mxGeometry x="665" y="241" width="170" height="50" as="geometry" />
        </mxCell>
        <mxCell id="_Z7kFgiQrJCgqxg7yo5q-39" style="edgeStyle=orthogonalEdgeStyle;rounded=0;orthogonalLoop=1;jettySize=auto;html=1;exitX=1;exitY=0.5;exitDx=0;exitDy=0;entryX=0;entryY=0.5;entryDx=0;entryDy=0;" parent="1" source="_Z7kFgiQrJCgqxg7yo5q-40" edge="1" target="_Z7kFgiQrJCgqxg7yo5q-37">
          <mxGeometry relative="1" as="geometry">
            <mxPoint x="750" y="218" as="targetPoint" />
            <Array as="points">
              <mxPoint x="861" y="351" />
              <mxPoint x="861" y="480" />
              <mxPoint x="620" y="480" />
              <mxPoint x="620" y="266" />
            </Array>
          </mxGeometry>
        </mxCell>
        <mxCell id="_Z7kFgiQrJCgqxg7yo5q-51" style="edgeStyle=orthogonalEdgeStyle;rounded=0;orthogonalLoop=1;jettySize=auto;html=1;exitX=0.5;exitY=1;exitDx=0;exitDy=0;entryX=0.5;entryY=0;entryDx=0;entryDy=0;endArrow=none;endFill=0;" parent="1" source="_Z7kFgiQrJCgqxg7yo5q-40" target="_Z7kFgiQrJCgqxg7yo5q-44" edge="1">
          <mxGeometry relative="1" as="geometry" />
        </mxCell>
        <mxCell id="_Z7kFgiQrJCgqxg7yo5q-40" value="j = 0; j &amp;lt; matrix.cols; ++j" style="shape=hexagon;perimeter=hexagonPerimeter2;whiteSpace=wrap;html=1;fixedSize=1;" parent="1" vertex="1">
          <mxGeometry x="665" y="326" width="170" height="50" as="geometry" />
        </mxCell>
        <mxCell id="_Z7kFgiQrJCgqxg7yo5q-43" style="edgeStyle=orthogonalEdgeStyle;rounded=0;orthogonalLoop=1;jettySize=auto;html=1;exitX=0;exitY=0.5;exitDx=0;exitDy=0;entryX=0;entryY=0.5;entryDx=0;entryDy=0;" parent="1" source="_Z7kFgiQrJCgqxg7yo5q-44" edge="1" target="_Z7kFgiQrJCgqxg7yo5q-40">
          <mxGeometry relative="1" as="geometry">
            <mxPoint x="750" y="308" as="targetPoint" />
            <Array as="points">
              <mxPoint x="650" y="430" />
              <mxPoint x="650" y="350" />
            </Array>
          </mxGeometry>
        </mxCell>
        <mxCell id="_Z7kFgiQrJCgqxg7yo5q-44" value="matrix[i, j] = Rand( )" style="rounded=0;whiteSpace=wrap;html=1;" parent="1" vertex="1">
          <mxGeometry x="690" y="400" width="120" height="60" as="geometry" />
        </mxCell>
        <mxCell id="_Z7kFgiQrJCgqxg7yo5q-45" style="edgeStyle=orthogonalEdgeStyle;rounded=0;orthogonalLoop=1;jettySize=auto;html=1;exitX=0.5;exitY=1;exitDx=0;exitDy=0;entryX=0.5;entryY=0;entryDx=0;entryDy=0;endArrow=none;endFill=0;" parent="1" source="_Z7kFgiQrJCgqxg7yo5q-46" target="_Z7kFgiQrJCgqxg7yo5q-50" edge="1">
          <mxGeometry relative="1" as="geometry">
            <mxPoint x="750" y="138" as="targetPoint" />
          </mxGeometry>
        </mxCell>
        <mxCell id="_Z7kFgiQrJCgqxg7yo5q-46" value="RandomMatrix(n, m)" style="rounded=1;whiteSpace=wrap;html=1;arcSize=50;" parent="1" vertex="1">
          <mxGeometry x="690" y="58" width="120" height="60" as="geometry" />
        </mxCell>
        <mxCell id="_Z7kFgiQrJCgqxg7yo5q-47" value="&amp;nbsp;Возврат" style="rounded=1;whiteSpace=wrap;html=1;arcSize=50;" parent="1" vertex="1">
          <mxGeometry x="690" y="525" width="120" height="60" as="geometry" />
        </mxCell>
        <mxCell id="_Z7kFgiQrJCgqxg7yo5q-48" style="edgeStyle=orthogonalEdgeStyle;rounded=0;orthogonalLoop=1;jettySize=auto;html=1;exitX=0.5;exitY=1;exitDx=0;exitDy=0;entryX=0.5;entryY=0;entryDx=0;entryDy=0;endArrow=none;endFill=0;" parent="1" source="_Z7kFgiQrJCgqxg7yo5q-50" target="_Z7kFgiQrJCgqxg7yo5q-37" edge="1">
          <mxGeometry relative="1" as="geometry">
            <mxPoint x="750" y="198" as="sourcePoint" />
          </mxGeometry>
        </mxCell>
        <mxCell id="_Z7kFgiQrJCgqxg7yo5q-50" value="&amp;nbsp;matrix = [ ]" style="rounded=0;whiteSpace=wrap;html=1;" parent="1" vertex="1">
          <mxGeometry x="690" y="140" width="120" height="60" as="geometry" />
        </mxCell>
      </root>
    </mxGraphModel>
  </diagram>
</mxfile>
